<?xml version="1.0" standalone="no"?>
<!DOCTYPE svg PUBLIC "-//W3C//DTD SVG 20010904//EN"
 "http://www.w3.org/TR/2001/REC-SVG-20010904/DTD/svg10.dtd">
<svg version="1.0" xmlns="http://www.w3.org/2000/svg"
 width="1024.000000pt" height="1024.000000pt" viewBox="0 0 1024.000000 1024.000000"
 preserveAspectRatio="xMidYMid meet">

<g transform="translate(0.000000,1024.000000) scale(0.100000,-0.100000)"
fill="#000000" stroke="none">
<path d="M2960 9953 c-262 -25 -349 -40 -538 -89 -848 -220 -1550 -827 -1900
-1644 -88 -205 -154 -439 -194 -690 l-23 -145 0 -2200 c0 -2385 -3 -2256 56
-2550 131 -648 502 -1244 1038 -1666 388 -304 929 -527 1486 -611 73 -11 497
-13 2305 -13 2445 0 2248 -5 2561 61 403 84 841 295 1179 567 41 33 143 128
225 211 442 445 707 976 802 1611 17 113 18 254 18 2330 0 2082 -1 2217 -18
2330 -54 359 -145 641 -303 944 -242 464 -612 854 -1074 1132 -277 166 -644
304 -990 373 -288 57 -246 56 -2513 54 -1145 0 -2098 -3 -2117 -5z m4460 -636
c391 -73 716 -213 1019 -440 125 -94 336 -305 432 -433 265 -353 418 -746 459
-1179 14 -153 14 -4040 0 -4173 -59 -538 -292 -1018 -681 -1399 -370 -363
-866 -595 -1374 -643 -150 -14 -4033 -14 -4176 0 -780 77 -1481 563 -1823
1264 -110 224 -175 428 -213 671 -17 102 -18 258 -18 2220 0 2344 -5 2157 66
2432 182 710 726 1308 1424 1566 170 63 338 102 560 130 17 2 975 4 2130 3
1960 -1 2106 -3 2195 -19z"/>
<path d="M7566 8189 c-72 -25 -128 -62 -183 -122 -88 -95 -116 -189 -111 -365
3 -118 5 -132 35 -194 41 -88 113 -160 200 -201 55 -25 83 -32 153 -35 76 -3
96 0 191 31 143 48 204 80 264 141 94 97 140 242 117 366 -25 139 -113 260
-228 318 -159 80 -318 102 -438 61z"/>
<path d="M4860 7549 c-386 -39 -784 -183 -1099 -397 -589 -399 -965 -1016
-1052 -1725 -18 -147 -7 -500 20 -652 148 -838 704 -1524 1487 -1839 350 -140
626 -196 967 -196 381 0 692 68 1022 224 638 302 1120 879 1300 1556 164 618
65 1301 -267 1844 -244 400 -575 706 -983 909 -448 223 -944 321 -1395 276z
m630 -514 c834 -138 1463 -817 1549 -1674 44 -431 -53 -831 -289 -1191 -270
-411 -698 -703 -1177 -804 -636 -134 -1280 67 -1733 541 -138 143 -224 266
-313 443 -202 401 -256 820 -161 1249 128 574 534 1066 1077 1304 170 75 358
123 587 151 71 9 368 -3 460 -19z"/>
</g>
</svg>
