<?xml version="1.0" standalone="no"?>
<!DOCTYPE svg PUBLIC "-//W3C//DTD SVG 20010904//EN"
 "http://www.w3.org/TR/2001/REC-SVG-20010904/DTD/svg10.dtd">
<svg version="1.0" xmlns="http://www.w3.org/2000/svg"
 width="1024.000000pt" height="1024.000000pt" viewBox="0 0 1024.000000 1024.000000"
 preserveAspectRatio="xMidYMid meet">

<g transform="translate(0.000000,1024.000000) scale(0.100000,-0.100000)"
fill="#000000" stroke="none">
<path d="M4985 9384 c-451 -38 -863 -197 -1195 -463 -88 -71 -250 -230 -322
-318 -196 -240 -358 -570 -427 -873 -50 -220 -66 -553 -38 -797 l12 -103 -315
0 c-225 0 -343 -4 -412 -15 -323 -48 -583 -270 -687 -585 -12 -37 -178 -1008
-386 -2252 -279 -1672 -365 -2207 -365 -2272 0 -391 262 -725 650 -828 l85
-23 3535 0 3535 0 85 23 c388 103 650 437 650 828 0 65 -85 593 -360 2242
-198 1186 -365 2180 -371 2207 -61 280 -261 511 -531 615 -127 49 -232 60
-588 60 l-315 0 12 103 c28 245 12 580 -38 797 -169 727 -704 1315 -1410 1548
-122 41 -241 69 -371 87 -111 15 -348 26 -433 19z m425 -883 c240 -60 445
-175 615 -346 180 -180 296 -395 352 -658 27 -124 24 -427 -6 -606 -119 -705
-497 -1462 -1131 -2266 -63 -79 -117 -145 -120 -144 -20 1 -365 462 -505 674
-417 632 -665 1216 -752 1770 -24 156 -24 461 0 572 56 263 171 478 352 658
184 185 424 311 684 360 114 22 399 14 511 -14z m-2117 -2680 c73 -187 256
-556 382 -771 266 -456 630 -949 1001 -1359 208 -230 280 -274 444 -274 164 0
236 44 444 274 371 410 735 903 1001 1359 126 215 309 584 382 771 l58 149
413 0 c281 0 412 -3 412 -10 0 -13 698 -4194 705 -4227 l5 -23 -3420 0 -3420
0 5 23 c7 33 705 4215 705 4227 0 7 136 10 413 10 l412 0 58 -149z"/>
</g>
</svg>
