<?xml version="1.0" standalone="no"?>
<!DOCTYPE svg PUBLIC "-//W3C//DTD SVG 20010904//EN"
 "http://www.w3.org/TR/2001/REC-SVG-20010904/DTD/svg10.dtd">
<svg version="1.0" xmlns="http://www.w3.org/2000/svg"
 width="1024.000000pt" height="1024.000000pt" viewBox="0 0 1024.000000 1024.000000"
 preserveAspectRatio="xMidYMid meet">

<g transform="translate(0.000000,1024.000000) scale(0.100000,-0.100000)"
fill="#000000" stroke="none">
<path d="M3150 9379 c-161 -25 -327 -102 -442 -206 -143 -130 -735 -724 -795
-798 -77 -95 -156 -250 -183 -359 -59 -233 21 -768 191 -1276 257 -773 708
-1518 1394 -2305 175 -201 627 -655 806 -811 459 -400 939 -729 1394 -957 490
-245 1003 -411 1505 -486 393 -59 860 -63 1067 -11 97 25 216 82 310 149 85
60 720 683 805 790 238 298 246 707 20 1038 -45 66 -165 184 -232 230 -59 39
-864 477 -958 520 -125 58 -209 76 -362 77 -110 0 -150 -4 -217 -22 -180 -48
-271 -106 -468 -298 -179 -174 -204 -187 -367 -192 -180 -6 -318 31 -540 145
-281 143 -591 386 -943 738 -487 486 -751 872 -851 1245 -24 92 -24 266 0 344
16 52 32 74 133 179 63 66 133 147 155 180 79 116 129 259 143 412 14 147 -35
359 -113 496 -59 101 -627 856 -697 925 -118 116 -284 206 -445 240 -89 19
-232 25 -310 13z"/>
</g>
</svg>
